<mxfile host="app.diagrams.net" modified="2024-04-12T13:22:36.889Z" agent="Mozilla/5.0 (Macintosh; Intel Mac OS X 10_15_7) AppleWebKit/537.36 (KHTML, like Gecko) Chrome/123.0.0.0 Safari/537.36" etag="KnQIFf9E18WeO5PMNLkP" scale="1" border="0" version="24.1.0" type="device">
  <diagram id="fc1f3b67-3c9b-b1b3-7705-706421d27264" name="ERD Habit Tracker app">
    <mxGraphModel dx="2753" dy="2348" grid="0" gridSize="10" guides="1" tooltips="1" connect="1" arrows="1" fold="1" page="0" pageScale="1" pageWidth="850" pageHeight="1100" math="0" shadow="0">
      <root>
        <mxCell id="0" />
        <mxCell id="1" parent="0" />
        <mxCell id="oXI_yFAo4SnlRLDDdZvq-2" value="Carta" style="strokeWidth=2;whiteSpace=wrap;html=1;align=center;fontSize=13;fontFamily=Helvetica;fontColor=#000000;strokeColor=#d79b00;fillColor=#ffe6cc;" parent="1" vertex="1">
          <mxGeometry x="-646" y="-735" width="70" height="70" as="geometry" />
        </mxCell>
        <mxCell id="oXI_yFAo4SnlRLDDdZvq-3" value="numero" style="ellipse;whiteSpace=wrap;html=1;aspect=fixed;fontSize=10;fillColor=#dae8fc;strokeColor=#6c8ebf;" parent="1" vertex="1">
          <mxGeometry x="-559" y="-990" width="66" height="66" as="geometry" />
        </mxCell>
        <mxCell id="oXI_yFAo4SnlRLDDdZvq-5" value="cvv" style="ellipse;whiteSpace=wrap;html=1;aspect=fixed;fontSize=10;fillColor=#dae8fc;strokeColor=#6c8ebf;" parent="1" vertex="1">
          <mxGeometry x="-432" y="-956" width="66" height="66" as="geometry" />
        </mxCell>
        <mxCell id="oXI_yFAo4SnlRLDDdZvq-6" value="scadenza" style="ellipse;whiteSpace=wrap;html=1;aspect=fixed;fontSize=10;fillColor=#dae8fc;strokeColor=#6c8ebf;" parent="1" vertex="1">
          <mxGeometry x="-388" y="-785" width="66" height="66" as="geometry" />
        </mxCell>
        <mxCell id="oXI_yFAo4SnlRLDDdZvq-8" value="tipo_carta" style="ellipse;whiteSpace=wrap;html=1;aspect=fixed;fontSize=10;fillColor=#dae8fc;strokeColor=#6c8ebf;" parent="1" vertex="1">
          <mxGeometry x="-396" y="-620" width="66" height="66" as="geometry" />
        </mxCell>
        <mxCell id="oXI_yFAo4SnlRLDDdZvq-9" value="saldo" style="ellipse;whiteSpace=wrap;html=1;aspect=fixed;fontSize=10;fillColor=#dae8fc;strokeColor=#6c8ebf;" parent="1" vertex="1">
          <mxGeometry x="-733" y="-967" width="66" height="66" as="geometry" />
        </mxCell>
        <mxCell id="oXI_yFAo4SnlRLDDdZvq-16" value="Posseduta da" style="shape=rhombus;strokeWidth=2;fontSize=13;perimeter=rhombusPerimeter;whiteSpace=wrap;html=1;align=center;fillColor=#d5e8d4;strokeColor=#82b366;" parent="1" vertex="1">
          <mxGeometry x="-880" y="-735" width="115" height="88" as="geometry" />
        </mxCell>
        <mxCell id="oXI_yFAo4SnlRLDDdZvq-18" value="Utente" style="strokeWidth=2;whiteSpace=wrap;html=1;align=center;fontSize=13;fontFamily=Helvetica;fontColor=#000000;strokeColor=#d79b00;fillColor=#ffe6cc;" parent="1" vertex="1">
          <mxGeometry x="-1066" y="-735" width="70" height="70" as="geometry" />
        </mxCell>
        <mxCell id="oXI_yFAo4SnlRLDDdZvq-20" value="nome_utente" style="ellipse;whiteSpace=wrap;html=1;aspect=fixed;fontSize=10;fillColor=#dae8fc;strokeColor=#6c8ebf;" parent="1" vertex="1">
          <mxGeometry x="-1108" y="-953" width="66" height="66" as="geometry" />
        </mxCell>
        <mxCell id="oXI_yFAo4SnlRLDDdZvq-21" value="email" style="ellipse;whiteSpace=wrap;html=1;aspect=fixed;fontSize=10;fillColor=#dae8fc;strokeColor=#6c8ebf;" parent="1" vertex="1">
          <mxGeometry x="-1183" y="-887" width="66" height="66" as="geometry" />
        </mxCell>
        <mxCell id="oXI_yFAo4SnlRLDDdZvq-22" value="password" style="ellipse;whiteSpace=wrap;html=1;aspect=fixed;fontSize=10;fillColor=#dae8fc;strokeColor=#6c8ebf;" parent="1" vertex="1">
          <mxGeometry x="-1212" y="-779" width="66" height="66" as="geometry" />
        </mxCell>
        <mxCell id="oXI_yFAo4SnlRLDDdZvq-23" value="nome" style="ellipse;whiteSpace=wrap;html=1;aspect=fixed;fontSize=10;fillColor=#dae8fc;strokeColor=#6c8ebf;" parent="1" vertex="1">
          <mxGeometry x="-1232" y="-671" width="66" height="66" as="geometry" />
        </mxCell>
        <mxCell id="oXI_yFAo4SnlRLDDdZvq-24" value="cognome" style="ellipse;whiteSpace=wrap;html=1;aspect=fixed;fontSize=10;fillColor=#dae8fc;strokeColor=#6c8ebf;" parent="1" vertex="1">
          <mxGeometry x="-1193" y="-559" width="66" height="66" as="geometry" />
        </mxCell>
        <mxCell id="oXI_yFAo4SnlRLDDdZvq-28" value="" style="endArrow=none;html=1;rounded=0;fontSize=12;startSize=8;endSize=8;curved=1;entryX=0.5;entryY=1;entryDx=0;entryDy=0;" parent="1" source="oXI_yFAo4SnlRLDDdZvq-24" target="oXI_yFAo4SnlRLDDdZvq-18" edge="1">
          <mxGeometry relative="1" as="geometry">
            <mxPoint x="-967" y="-482" as="sourcePoint" />
            <mxPoint x="-807" y="-482" as="targetPoint" />
          </mxGeometry>
        </mxCell>
        <mxCell id="oXI_yFAo4SnlRLDDdZvq-29" value="" style="endArrow=none;html=1;rounded=0;fontSize=12;startSize=8;endSize=8;curved=1;entryX=0.5;entryY=0;entryDx=0;entryDy=0;exitX=0.5;exitY=1;exitDx=0;exitDy=0;" parent="1" source="oXI_yFAo4SnlRLDDdZvq-20" target="oXI_yFAo4SnlRLDDdZvq-18" edge="1">
          <mxGeometry relative="1" as="geometry">
            <mxPoint x="-1128" y="-540" as="sourcePoint" />
            <mxPoint x="-1021" y="-655" as="targetPoint" />
          </mxGeometry>
        </mxCell>
        <mxCell id="oXI_yFAo4SnlRLDDdZvq-30" value="" style="endArrow=none;html=1;rounded=0;fontSize=12;startSize=8;endSize=8;curved=1;entryX=0;entryY=0;entryDx=0;entryDy=0;" parent="1" source="oXI_yFAo4SnlRLDDdZvq-21" target="oXI_yFAo4SnlRLDDdZvq-18" edge="1">
          <mxGeometry relative="1" as="geometry">
            <mxPoint x="-1118" y="-530" as="sourcePoint" />
            <mxPoint x="-1011" y="-645" as="targetPoint" />
          </mxGeometry>
        </mxCell>
        <mxCell id="oXI_yFAo4SnlRLDDdZvq-31" value="" style="endArrow=none;html=1;rounded=0;fontSize=12;startSize=8;endSize=8;curved=1;entryX=0;entryY=0.5;entryDx=0;entryDy=0;exitX=1;exitY=0.5;exitDx=0;exitDy=0;" parent="1" source="oXI_yFAo4SnlRLDDdZvq-22" target="oXI_yFAo4SnlRLDDdZvq-18" edge="1">
          <mxGeometry relative="1" as="geometry">
            <mxPoint x="-1108" y="-520" as="sourcePoint" />
            <mxPoint x="-1001" y="-635" as="targetPoint" />
          </mxGeometry>
        </mxCell>
        <mxCell id="oXI_yFAo4SnlRLDDdZvq-32" value="" style="endArrow=none;html=1;rounded=0;fontSize=12;startSize=8;endSize=8;curved=1;entryX=0;entryY=1;entryDx=0;entryDy=0;" parent="1" source="oXI_yFAo4SnlRLDDdZvq-23" target="oXI_yFAo4SnlRLDDdZvq-18" edge="1">
          <mxGeometry relative="1" as="geometry">
            <mxPoint x="-1098" y="-510" as="sourcePoint" />
            <mxPoint x="-991" y="-625" as="targetPoint" />
          </mxGeometry>
        </mxCell>
        <mxCell id="oXI_yFAo4SnlRLDDdZvq-33" value="" style="endArrow=none;html=1;rounded=0;fontSize=12;startSize=8;endSize=8;curved=1;entryX=1;entryY=1;entryDx=0;entryDy=0;exitX=0;exitY=0;exitDx=0;exitDy=0;" parent="1" source="oXI_yFAo4SnlRLDDdZvq-8" target="oXI_yFAo4SnlRLDDdZvq-2" edge="1">
          <mxGeometry relative="1" as="geometry">
            <mxPoint x="-890" y="-484" as="sourcePoint" />
            <mxPoint x="-730" y="-484" as="targetPoint" />
          </mxGeometry>
        </mxCell>
        <mxCell id="oXI_yFAo4SnlRLDDdZvq-34" value="" style="endArrow=none;html=1;rounded=0;fontSize=12;startSize=8;endSize=8;curved=1;exitX=0;exitY=0;exitDx=0;exitDy=0;entryX=1;entryY=0.75;entryDx=0;entryDy=0;" parent="1" source="oXI_yFAo4SnlRLDDdZvq-6" target="oXI_yFAo4SnlRLDDdZvq-2" edge="1">
          <mxGeometry relative="1" as="geometry">
            <mxPoint x="-598" y="-462" as="sourcePoint" />
            <mxPoint x="-569" y="-686" as="targetPoint" />
          </mxGeometry>
        </mxCell>
        <mxCell id="oXI_yFAo4SnlRLDDdZvq-35" value="" style="endArrow=none;html=1;rounded=0;fontSize=12;startSize=8;endSize=8;curved=1;entryX=1;entryY=0.5;entryDx=0;entryDy=0;exitX=0;exitY=0.5;exitDx=0;exitDy=0;" parent="1" source="oXI_yFAo4SnlRLDDdZvq-5" target="oXI_yFAo4SnlRLDDdZvq-2" edge="1">
          <mxGeometry relative="1" as="geometry">
            <mxPoint x="-588" y="-452" as="sourcePoint" />
            <mxPoint x="-591" y="-645" as="targetPoint" />
          </mxGeometry>
        </mxCell>
        <mxCell id="oXI_yFAo4SnlRLDDdZvq-36" value="" style="endArrow=none;html=1;rounded=0;fontSize=12;startSize=8;endSize=8;curved=1;entryX=1;entryY=0;entryDx=0;entryDy=0;exitX=0;exitY=1;exitDx=0;exitDy=0;" parent="1" source="oXI_yFAo4SnlRLDDdZvq-3" target="oXI_yFAo4SnlRLDDdZvq-2" edge="1">
          <mxGeometry relative="1" as="geometry">
            <mxPoint x="-578" y="-442" as="sourcePoint" />
            <mxPoint x="-581" y="-635" as="targetPoint" />
          </mxGeometry>
        </mxCell>
        <mxCell id="oXI_yFAo4SnlRLDDdZvq-38" value="" style="endArrow=none;html=1;rounded=0;fontSize=12;startSize=8;endSize=8;curved=1;entryX=0;entryY=0;entryDx=0;entryDy=0;" parent="1" source="oXI_yFAo4SnlRLDDdZvq-9" edge="1">
          <mxGeometry relative="1" as="geometry">
            <mxPoint x="-522" y="-424" as="sourcePoint" />
            <mxPoint x="-610" y="-737" as="targetPoint" />
          </mxGeometry>
        </mxCell>
        <mxCell id="oXI_yFAo4SnlRLDDdZvq-39" value="Famiglia" style="strokeWidth=2;whiteSpace=wrap;html=1;align=center;fontSize=13;fontFamily=Helvetica;fontColor=#000000;strokeColor=#d79b00;fillColor=#ffe6cc;" parent="1" vertex="1">
          <mxGeometry x="-1088" y="-329" width="92" height="88" as="geometry" />
        </mxCell>
        <mxCell id="oXI_yFAo4SnlRLDDdZvq-40" value="nome" style="ellipse;whiteSpace=wrap;html=1;aspect=fixed;fontSize=10;fillColor=#dae8fc;strokeColor=#6c8ebf;" parent="1" vertex="1">
          <mxGeometry x="-1193" y="-151" width="103" height="103" as="geometry" />
        </mxCell>
        <mxCell id="oXI_yFAo4SnlRLDDdZvq-41" value="numero_partecipanti" style="ellipse;whiteSpace=wrap;html=1;aspect=fixed;fontSize=10;fillColor=#dae8fc;strokeColor=#6c8ebf;" parent="1" vertex="1">
          <mxGeometry x="-995" y="-151" width="103" height="103" as="geometry" />
        </mxCell>
        <mxCell id="oXI_yFAo4SnlRLDDdZvq-42" value="" style="endArrow=none;html=1;rounded=0;fontSize=12;startSize=8;endSize=8;curved=1;exitX=0.25;exitY=1;exitDx=0;exitDy=0;" parent="1" source="oXI_yFAo4SnlRLDDdZvq-39" target="oXI_yFAo4SnlRLDDdZvq-40" edge="1">
          <mxGeometry relative="1" as="geometry">
            <mxPoint x="-948" y="-536" as="sourcePoint" />
            <mxPoint x="-788" y="-536" as="targetPoint" />
          </mxGeometry>
        </mxCell>
        <mxCell id="oXI_yFAo4SnlRLDDdZvq-43" value="" style="endArrow=none;html=1;rounded=0;fontSize=12;startSize=8;endSize=8;curved=1;exitX=1;exitY=1;exitDx=0;exitDy=0;entryX=0.5;entryY=0;entryDx=0;entryDy=0;" parent="1" source="oXI_yFAo4SnlRLDDdZvq-39" target="oXI_yFAo4SnlRLDDdZvq-41" edge="1">
          <mxGeometry relative="1" as="geometry">
            <mxPoint x="-1038" y="-231" as="sourcePoint" />
            <mxPoint x="-1103" y="-132" as="targetPoint" />
          </mxGeometry>
        </mxCell>
        <mxCell id="oXI_yFAo4SnlRLDDdZvq-51" value="Appartiene" style="shape=rhombus;strokeWidth=2;fontSize=13;perimeter=rhombusPerimeter;whiteSpace=wrap;html=1;align=center;fillColor=#d5e8d4;strokeColor=#82b366;" parent="1" vertex="1">
          <mxGeometry x="-1077.5" y="-521" width="93" height="85" as="geometry" />
        </mxCell>
        <mxCell id="oXI_yFAo4SnlRLDDdZvq-52" value="" style="endArrow=none;html=1;rounded=0;fontSize=12;startSize=8;endSize=8;curved=1;exitX=1;exitY=0.5;exitDx=0;exitDy=0;entryX=0;entryY=0.5;entryDx=0;entryDy=0;" parent="1" source="oXI_yFAo4SnlRLDDdZvq-18" target="oXI_yFAo4SnlRLDDdZvq-16" edge="1">
          <mxGeometry relative="1" as="geometry">
            <mxPoint x="-902" y="-592" as="sourcePoint" />
            <mxPoint x="-742" y="-592" as="targetPoint" />
          </mxGeometry>
        </mxCell>
        <mxCell id="oXI_yFAo4SnlRLDDdZvq-53" value="(1)" style="resizable=0;html=1;whiteSpace=wrap;align=right;verticalAlign=bottom;" parent="oXI_yFAo4SnlRLDDdZvq-52" connectable="0" vertex="1">
          <mxGeometry x="1" relative="1" as="geometry" />
        </mxCell>
        <mxCell id="oXI_yFAo4SnlRLDDdZvq-54" value="" style="endArrow=none;html=1;rounded=0;fontSize=12;startSize=8;endSize=8;curved=1;exitX=0;exitY=0.5;exitDx=0;exitDy=0;entryX=1;entryY=0.5;entryDx=0;entryDy=0;" parent="1" source="oXI_yFAo4SnlRLDDdZvq-2" target="oXI_yFAo4SnlRLDDdZvq-16" edge="1">
          <mxGeometry relative="1" as="geometry">
            <mxPoint x="-902" y="-592" as="sourcePoint" />
            <mxPoint x="-760" y="-691" as="targetPoint" />
          </mxGeometry>
        </mxCell>
        <mxCell id="oXI_yFAo4SnlRLDDdZvq-55" value="(*)" style="resizable=0;html=1;whiteSpace=wrap;align=right;verticalAlign=bottom;" parent="oXI_yFAo4SnlRLDDdZvq-54" connectable="0" vertex="1">
          <mxGeometry x="1" relative="1" as="geometry">
            <mxPoint x="21" y="-6" as="offset" />
          </mxGeometry>
        </mxCell>
        <mxCell id="oXI_yFAo4SnlRLDDdZvq-56" value="" style="endArrow=none;html=1;rounded=0;fontSize=12;startSize=8;endSize=8;curved=1;entryX=0.5;entryY=0;entryDx=0;entryDy=0;exitX=0.5;exitY=1;exitDx=0;exitDy=0;" parent="1" source="oXI_yFAo4SnlRLDDdZvq-18" target="oXI_yFAo4SnlRLDDdZvq-51" edge="1">
          <mxGeometry relative="1" as="geometry">
            <mxPoint x="-920" y="-525" as="sourcePoint" />
            <mxPoint x="-1030" y="-420" as="targetPoint" />
          </mxGeometry>
        </mxCell>
        <mxCell id="oXI_yFAo4SnlRLDDdZvq-57" value="(*)" style="resizable=0;html=1;whiteSpace=wrap;align=right;verticalAlign=bottom;" parent="oXI_yFAo4SnlRLDDdZvq-56" connectable="0" vertex="1">
          <mxGeometry x="1" relative="1" as="geometry">
            <mxPoint x="-11" y="-6" as="offset" />
          </mxGeometry>
        </mxCell>
        <mxCell id="oXI_yFAo4SnlRLDDdZvq-58" value="" style="shape=link;html=1;rounded=0;fontSize=12;startSize=8;endSize=8;curved=1;exitX=0.5;exitY=0;exitDx=0;exitDy=0;entryX=0.5;entryY=1;entryDx=0;entryDy=0;" parent="1" source="oXI_yFAo4SnlRLDDdZvq-39" target="oXI_yFAo4SnlRLDDdZvq-51" edge="1">
          <mxGeometry relative="1" as="geometry">
            <mxPoint x="-902" y="-592" as="sourcePoint" />
            <mxPoint x="-1042" y="-402" as="targetPoint" />
          </mxGeometry>
        </mxCell>
        <mxCell id="oXI_yFAo4SnlRLDDdZvq-59" value="(0,1)" style="resizable=0;html=1;whiteSpace=wrap;align=right;verticalAlign=bottom;" parent="oXI_yFAo4SnlRLDDdZvq-58" connectable="0" vertex="1">
          <mxGeometry x="1" relative="1" as="geometry">
            <mxPoint x="-11" y="19" as="offset" />
          </mxGeometry>
        </mxCell>
        <mxCell id="oXI_yFAo4SnlRLDDdZvq-60" value="Transazione" style="strokeWidth=2;whiteSpace=wrap;html=1;align=center;fontSize=13;fontFamily=Helvetica;fontColor=#000000;strokeColor=#d79b00;fillColor=#ffe6cc;" parent="1" vertex="1">
          <mxGeometry x="-658.5" y="-439" width="95" height="84" as="geometry" />
        </mxCell>
        <mxCell id="oXI_yFAo4SnlRLDDdZvq-61" value="Ha" style="shape=rhombus;strokeWidth=2;fontSize=13;perimeter=rhombusPerimeter;whiteSpace=wrap;html=1;align=center;fillColor=#d5e8d4;strokeColor=#82b366;" parent="1" vertex="1">
          <mxGeometry x="-646" y="-579" width="70" height="70" as="geometry" />
        </mxCell>
        <mxCell id="oXI_yFAo4SnlRLDDdZvq-62" value="data" style="ellipse;whiteSpace=wrap;html=1;aspect=fixed;fontSize=10;fillColor=#dae8fc;strokeColor=#6c8ebf;" parent="1" vertex="1">
          <mxGeometry x="-437" y="-407" width="78" height="78" as="geometry" />
        </mxCell>
        <mxCell id="oXI_yFAo4SnlRLDDdZvq-63" value="tipo_transazione" style="ellipse;whiteSpace=wrap;html=1;aspect=fixed;fontSize=10;fillColor=#dae8fc;strokeColor=#6c8ebf;" parent="1" vertex="1">
          <mxGeometry x="-488" y="-277" width="94" height="94" as="geometry" />
        </mxCell>
        <mxCell id="oXI_yFAo4SnlRLDDdZvq-64" value="importo" style="ellipse;whiteSpace=wrap;html=1;aspect=fixed;fontSize=10;fillColor=#dae8fc;strokeColor=#6c8ebf;" parent="1" vertex="1">
          <mxGeometry x="-795" y="-300" width="84" height="84" as="geometry" />
        </mxCell>
        <mxCell id="oXI_yFAo4SnlRLDDdZvq-65" value="" style="endArrow=none;html=1;rounded=0;fontSize=12;startSize=8;endSize=8;curved=1;exitX=0;exitY=0.5;exitDx=0;exitDy=0;entryX=0.822;entryY=0.037;entryDx=0;entryDy=0;entryPerimeter=0;" parent="1" source="oXI_yFAo4SnlRLDDdZvq-60" target="oXI_yFAo4SnlRLDDdZvq-64" edge="1">
          <mxGeometry relative="1" as="geometry">
            <mxPoint x="-725" y="-570" as="sourcePoint" />
            <mxPoint x="-565" y="-570" as="targetPoint" />
          </mxGeometry>
        </mxCell>
        <mxCell id="oXI_yFAo4SnlRLDDdZvq-66" value="" style="endArrow=none;html=1;rounded=0;fontSize=12;startSize=8;endSize=8;curved=1;exitX=1;exitY=0.5;exitDx=0;exitDy=0;entryX=0;entryY=0.5;entryDx=0;entryDy=0;" parent="1" source="oXI_yFAo4SnlRLDDdZvq-60" target="oXI_yFAo4SnlRLDDdZvq-62" edge="1">
          <mxGeometry relative="1" as="geometry">
            <mxPoint x="-648" y="-387" as="sourcePoint" />
            <mxPoint x="-716" y="-287" as="targetPoint" />
          </mxGeometry>
        </mxCell>
        <mxCell id="oXI_yFAo4SnlRLDDdZvq-67" value="" style="endArrow=none;html=1;rounded=0;fontSize=12;startSize=8;endSize=8;curved=1;exitX=1;exitY=1;exitDx=0;exitDy=0;entryX=0;entryY=0;entryDx=0;entryDy=0;" parent="1" source="oXI_yFAo4SnlRLDDdZvq-60" target="oXI_yFAo4SnlRLDDdZvq-63" edge="1">
          <mxGeometry relative="1" as="geometry">
            <mxPoint x="-638" y="-377" as="sourcePoint" />
            <mxPoint x="-706" y="-277" as="targetPoint" />
          </mxGeometry>
        </mxCell>
        <mxCell id="oXI_yFAo4SnlRLDDdZvq-68" value="" style="endArrow=none;html=1;rounded=0;fontSize=12;startSize=8;endSize=8;curved=1;entryX=0.5;entryY=1;entryDx=0;entryDy=0;exitX=0.5;exitY=0;exitDx=0;exitDy=0;" parent="1" source="oXI_yFAo4SnlRLDDdZvq-60" target="oXI_yFAo4SnlRLDDdZvq-61" edge="1">
          <mxGeometry relative="1" as="geometry">
            <mxPoint x="-725" y="-570" as="sourcePoint" />
            <mxPoint x="-565" y="-570" as="targetPoint" />
          </mxGeometry>
        </mxCell>
        <mxCell id="oXI_yFAo4SnlRLDDdZvq-69" value="(*)" style="resizable=0;html=1;whiteSpace=wrap;align=right;verticalAlign=bottom;" parent="oXI_yFAo4SnlRLDDdZvq-68" connectable="0" vertex="1">
          <mxGeometry x="1" relative="1" as="geometry">
            <mxPoint x="-6" y="28" as="offset" />
          </mxGeometry>
        </mxCell>
        <mxCell id="oXI_yFAo4SnlRLDDdZvq-70" value="" style="endArrow=none;html=1;rounded=0;fontSize=12;startSize=8;endSize=8;curved=1;entryX=0.5;entryY=0;entryDx=0;entryDy=0;exitX=0.5;exitY=1;exitDx=0;exitDy=0;" parent="1" source="oXI_yFAo4SnlRLDDdZvq-2" target="oXI_yFAo4SnlRLDDdZvq-61" edge="1">
          <mxGeometry relative="1" as="geometry">
            <mxPoint x="-725" y="-570" as="sourcePoint" />
            <mxPoint x="-609" y="-570" as="targetPoint" />
          </mxGeometry>
        </mxCell>
        <mxCell id="oXI_yFAo4SnlRLDDdZvq-71" value="(1)" style="resizable=0;html=1;whiteSpace=wrap;align=right;verticalAlign=bottom;" parent="oXI_yFAo4SnlRLDDdZvq-70" connectable="0" vertex="1">
          <mxGeometry x="1" relative="1" as="geometry">
            <mxPoint x="-8" as="offset" />
          </mxGeometry>
        </mxCell>
        <mxCell id="oXI_yFAo4SnlRLDDdZvq-72" value="Appartiene" style="shape=rhombus;strokeWidth=2;fontSize=13;perimeter=rhombusPerimeter;whiteSpace=wrap;html=1;align=center;fillColor=#d5e8d4;strokeColor=#82b366;" parent="1" vertex="1">
          <mxGeometry x="-658.5" y="-175" width="93" height="85" as="geometry" />
        </mxCell>
        <mxCell id="oXI_yFAo4SnlRLDDdZvq-73" value="Gruppo" style="strokeWidth=2;whiteSpace=wrap;html=1;align=center;fontSize=13;fontFamily=Helvetica;fontColor=#000000;strokeColor=#d79b00;fillColor=#ffe6cc;" parent="1" vertex="1">
          <mxGeometry x="-640.5" y="3" width="70" height="70" as="geometry" />
        </mxCell>
        <mxCell id="oXI_yFAo4SnlRLDDdZvq-74" value="nome" style="ellipse;whiteSpace=wrap;html=1;aspect=fixed;fontSize=10;fillColor=#dae8fc;strokeColor=#6c8ebf;" parent="1" vertex="1">
          <mxGeometry x="-724.5" y="121.5" width="66" height="66" as="geometry" />
        </mxCell>
        <mxCell id="oXI_yFAo4SnlRLDDdZvq-75" value="categoria" style="ellipse;whiteSpace=wrap;html=1;aspect=fixed;fontSize=10;fillColor=#dae8fc;strokeColor=#6c8ebf;" parent="1" vertex="1">
          <mxGeometry x="-550" y="119" width="71" height="71" as="geometry" />
        </mxCell>
        <mxCell id="oXI_yFAo4SnlRLDDdZvq-76" value="" style="endArrow=none;html=1;rounded=0;fontSize=12;startSize=8;endSize=8;curved=1;entryX=0;entryY=1;entryDx=0;entryDy=0;" parent="1" source="oXI_yFAo4SnlRLDDdZvq-74" target="oXI_yFAo4SnlRLDDdZvq-73" edge="1">
          <mxGeometry relative="1" as="geometry">
            <mxPoint x="-717" y="-303" as="sourcePoint" />
            <mxPoint x="-557" y="-303" as="targetPoint" />
          </mxGeometry>
        </mxCell>
        <mxCell id="oXI_yFAo4SnlRLDDdZvq-77" value="" style="endArrow=none;html=1;rounded=0;fontSize=12;startSize=8;endSize=8;curved=1;entryX=1;entryY=1;entryDx=0;entryDy=0;exitX=0.5;exitY=0;exitDx=0;exitDy=0;" parent="1" source="oXI_yFAo4SnlRLDDdZvq-75" target="oXI_yFAo4SnlRLDDdZvq-73" edge="1">
          <mxGeometry relative="1" as="geometry">
            <mxPoint x="-717" y="-303" as="sourcePoint" />
            <mxPoint x="-557" y="-303" as="targetPoint" />
          </mxGeometry>
        </mxCell>
        <mxCell id="oXI_yFAo4SnlRLDDdZvq-82" value="" style="shape=link;html=1;rounded=0;fontSize=12;startSize=8;endSize=8;curved=1;entryX=0.5;entryY=1;entryDx=0;entryDy=0;exitX=0.5;exitY=0;exitDx=0;exitDy=0;" parent="1" source="oXI_yFAo4SnlRLDDdZvq-73" target="oXI_yFAo4SnlRLDDdZvq-72" edge="1">
          <mxGeometry relative="1" as="geometry">
            <mxPoint x="-729" y="-195" as="sourcePoint" />
            <mxPoint x="-569" y="-195" as="targetPoint" />
          </mxGeometry>
        </mxCell>
        <mxCell id="oXI_yFAo4SnlRLDDdZvq-83" value="(1)" style="resizable=0;html=1;whiteSpace=wrap;align=right;verticalAlign=bottom;" parent="oXI_yFAo4SnlRLDDdZvq-82" connectable="0" vertex="1">
          <mxGeometry x="1" relative="1" as="geometry">
            <mxPoint x="-11" y="18" as="offset" />
          </mxGeometry>
        </mxCell>
        <mxCell id="oXI_yFAo4SnlRLDDdZvq-84" value="" style="endArrow=none;html=1;rounded=0;fontSize=12;startSize=8;endSize=8;curved=1;entryX=0.5;entryY=0;entryDx=0;entryDy=0;exitX=0.5;exitY=1;exitDx=0;exitDy=0;" parent="1" source="oXI_yFAo4SnlRLDDdZvq-60" target="oXI_yFAo4SnlRLDDdZvq-72" edge="1">
          <mxGeometry relative="1" as="geometry">
            <mxPoint x="-729" y="-195" as="sourcePoint" />
            <mxPoint x="-569" y="-195" as="targetPoint" />
          </mxGeometry>
        </mxCell>
        <mxCell id="oXI_yFAo4SnlRLDDdZvq-85" value="(*)" style="resizable=0;html=1;whiteSpace=wrap;align=right;verticalAlign=bottom;" parent="oXI_yFAo4SnlRLDDdZvq-84" connectable="0" vertex="1">
          <mxGeometry x="1" relative="1" as="geometry">
            <mxPoint x="-17" y="-5" as="offset" />
          </mxGeometry>
        </mxCell>
      </root>
    </mxGraphModel>
  </diagram>
</mxfile>
